<?xml version="1.0" standalone="no"?>
<!DOCTYPE svg PUBLIC "-//W3C//DTD SVG 20010904//EN"
 "http://www.w3.org/TR/2001/REC-SVG-20010904/DTD/svg10.dtd">
<svg version="1.0" xmlns="http://www.w3.org/2000/svg"
 width="700.000000pt" height="700.000000pt" viewBox="0 0 700.000000 700.000000"
 preserveAspectRatio="xMidYMid meet">
<metadata>
Created by potrace 1.11, written by Peter Selinger 2001-2013
</metadata>
<g transform="translate(0.000000,700.000000) scale(0.100000,-0.100000)"
fill="#000000" stroke="none">
<path d="M3170 6668 c-978 -102 -1852 -650 -2379 -1493 -226 -362 -380 -788
-448 -1240 -28 -188 -25 -708 5 -900 56 -356 158 -673 320 -990 245 -478 623
-900 1076 -1200 430 -284 895 -452 1416 -511 161 -18 519 -18 680 0 416 47
763 152 1130 343 880 456 1505 1314 1669 2288 32 188 41 311 41 535 0 297 -25
513 -91 774 -144 570 -428 1068 -848 1486 -523 520 -1192 835 -1930 910 -122
12 -519 11 -641 -2z m680 -73 c1348 -154 2440 -1158 2704 -2485 46 -232 59
-388 53 -675 -6 -300 -23 -438 -88 -697 -296 -1179 -1262 -2083 -2459 -2302
-337 -62 -783 -62 -1120 0 -830 152 -1568 639 -2035 1344 -278 418 -442 870
-499 1370 -21 177 -21 523 0 700 57 500 221 951 499 1370 507 765 1320 1266
2230 1374 167 19 545 20 715 1z"/>
<path d="M3500 5112 l0 -1400 -37 -7 c-52 -10 -85 -28 -121 -69 -60 -69 -63
21 47 -1566 56 -800 104 -1483 107 -1518 l6 -62 107 5 c565 32 1033 176 1489
459 917 569 1470 1638 1402 2712 -28 440 -118 780 -310 1169 -392 795 -1115
1375 -1973 1584 -201 49 -357 71 -614 86 l-103 6 0 -1399z m71 -1541 c64 -65
20 -171 -71 -171 -33 0 -48 6 -71 29 -23 23 -29 38 -29 71 0 33 6 48 29 71 23
23 38 29 71 29 33 0 48 -6 71 -29z"/>
</g>
</svg>
